USFL
nRows=126
nColumns=2
inDegrees=yes
endheader
time	soleus_r	
2.875	 53.113320	
2.9375	 53.179463	
3	 53.263375	
3.0625	 53.232989	
3.125	 53.292347	
3.1875	 53.297842	
3.25	 53.300236	
3.3125	 53.303169	
3.375	 53.268918	
3.4375	 53.323250	
3.5	 53.357707	
3.5625	 53.293691	
3.625	 53.357382	
3.6875	 53.376690	
3.75	 53.311938	
3.8125	 53.327770	
3.875	 53.297281	
3.9375	 53.382382	
4	 53.355156	
4.0625	 53.380770	
4.125	 53.415169	
4.1875	 53.579305	
4.25	 53.551955	
4.3125	 53.536767	
4.375	 53.395969	
4.4375	 53.486409	
4.5	 53.517993	
4.5625	 53.490752	
4.625	 53.498265	
4.6875	 53.448079	
4.75	 53.313061	
4.8125	 53.310918	
4.875	 53.268241	
4.9375	 53.272508	
5	 53.259877	
5.0625	 53.200722	
5.125	 52.947841	
5.1875	 37.280085	
5.25	 37.227695	
5.3125	 36.817125	
5.375	 36.680755	
5.4375	 35.147955	
5.5	 34.906027	
5.5625	 34.716875	
5.625	 34.690942	
5.6875	 34.780496	
5.75	 35.015990	
5.8125	 35.027390	
5.875	 34.859632	
5.9375	 34.656931	
6	 34.584282	
6.0625	 34.272730	
6.125	 34.337002	
6.1875	 34.284080	
6.25	 34.235608	
6.3125	 34.127953	
6.375	 31.942174	
6.4375	 31.459687	
6.5	 31.194086	
6.5625	 31.133049	
6.625	 31.055225	
6.6875	 30.873664	
6.75	 30.980739	
6.8125	 31.187564	
6.875	 31.227557	
6.9375	 31.111571	
7	 31.005339	
7.0625	 30.884343	
7.125	 30.893151	
7.1875	 30.757045	
7.25	 30.553917	
7.3125	 30.697740	
7.375	 30.598801	
7.4375	 30.358599	
7.5	 30.403581	
7.5625	 30.292364	
7.625	 30.235782	
7.6875	 30.229356	
7.75	 30.351825	
7.8125	 30.231717	
7.875	 30.284404	
7.9375	 30.293840	
8	 30.308656	
8.0625	 30.309615	
8.125	 30.253687	
8.1875	 30.227174	
8.25	 30.254546	
8.3125	 30.391591	
8.375	 30.325791	
8.4375	 30.371728	
8.5	 30.246950	
8.5625	 30.094428	
8.625	 30.118032	
8.6875	 30.129282	
8.75	 30.137491	
8.8125	 30.148236	
8.875	 30.104552	
8.9375	 30.029277	
9	 30.062427	
9.0625	 30.069724	
9.125	 30.004498	
9.1875	 29.972438	
9.25	 29.984190	
9.3125	 29.942474	
9.375	 29.981334	
9.4375	 30.019322	
9.5	 30.053166	
9.5625	 30.072073	
9.625	 30.112728	
9.6875	 30.085242	
9.75	 30.059425	
9.8125	 30.290513	
9.875	 30.341720	
9.9375	 30.332879	
10	 30.244897	
10.0625	 30.153669	
10.125	 32.821294	
10.1875	 32.739172	
10.25	 32.768070	
10.3125	 32.743641	
10.375	 32.967003	
10.4375	 38.935971	
10.5	 38.896253	
10.5625	 39.106945	
10.625	 39.087604	
10.6875	 39.103601	
